<svg viewBox="0 0 66.56 27.86" xmlns="http://www.w3.org/2000/svg"><g fill="#ef404d"><path d="m13 14.88c-.48 2.35-2.13 4.89-6.34 4.89-4.39 0-6.65-3-6.65-7.28s2.53-7.49 6.83-7.49c4.76 0 6.08 3.42 6.16 5h-3.82a2.21 2.21 0 0 0 -2.42-1.94c-1.76 0-2.76 1.57-2.76 4.3 0 3 1.07 4.38 2.78 4.38a2.41 2.41 0 0 0 2.41-1.86z"/><path d="m27.18 15.8a32.17 32.17 0 0 0 .19 3.64h-3.73a5.88 5.88 0 0 1 -.2-1.38c-.51.8-1.47 1.71-4 1.71-3.41 0-4.84-2.24-4.84-4.43 0-3.21 2.58-4.69 6.72-4.69h2v-.87c0-1-.36-2-2.17-2-1.65 0-2 .71-2.19 1.73h-3.67c.22-2.51 1.77-4.51 6.06-4.51 3.78 0 5.83 1.51 5.83 4.86zm-3.8-2.8h-1.6c-2.35 0-3.22.72-3.22 2.08a1.81 1.81 0 0 0 2 1.88c2.48 0 2.79-1.73 2.79-3.59z"/><path d="m28.54 0v5.33h3.62a14.76 14.76 0 0 1 .13 1.76 4.44 4.44 0 0 1 4.1-2.09c3.17 0 5.61 2.66 5.61 7 0 5-2.73 7.74-6.15 7.74a3.91 3.91 0 0 1 -3.57-1.58v6.66h-3.74v3h38v-27.82zm28.76 13.22h-9.3c0 1.77.89 3.49 2.83 3.49a2.22 2.22 0 0 0 2.46-1.5h3.91c-.5 1.72-2 4.56-6.47 4.56-4.65 0-6.67-3.48-6.67-7.18-.01-4.42 2.27-7.59 6.8-7.59 4.84 0 6.49 3.51 6.49 7a8.86 8.86 0 0 1 -.05 1.22z"/><path d="m50.85 7.8c-1.87 0-2.62 1.29-2.78 3h5.37c-.03-1.62-.69-3-2.59-3z"/><path d="m35 16.66c2.06 0 3.07-1.6 3.07-4.48 0-2.58-1-4-2.91-4-2.22 0-3 1.42-3 4.26s.7 4.22 2.84 4.22z"/></g></svg>